<?xml version="1.0" encoding="UTF-8" standalone="no"?>
<svg width="100px" height="100px" viewBox="0 0 100 100" version="1.1" xmlns="http://www.w3.org/2000/svg" xmlns:xlink="http://www.w3.org/1999/xlink">
    <!-- Generator: Sketch 3.7.1 (28215) - http://www.bohemiancoding.com/sketch -->
    <title>18F-Logo-S</title>
    <desc>Created with Sketch.</desc>
    <defs></defs>
    <g id="Page-1" stroke="none" stroke-width="1" fill="none" fill-rule="evenodd">
        <g id="18F-Logo-S">
            <g id="18F-Logo-2016-Black">
                <path d="M98.2882883,0 L1.71171171,0 C0.750750751,0 0,0.750750751 0,1.71171171 L0,98.2882883 C0,99.2192192 0.750750751,100 1.71171171,100 L98.2882883,100 C99.2192192,100 100,99.2492492 100,98.2882883 L100,1.71171171 C100,0.750750751 99.2492492,0 98.2882883,0 L98.2882883,0 Z" id="Shape" fill="#000000"></path>
                <path d="M29.4294294,68.8588589 C29.4294294,69.1891892 29.1591592,69.4594595 28.8288288,69.4594595 L25.0750751,69.4594595 C24.7447447,69.4594595 24.4744745,69.1891892 24.4744745,68.8588589 L24.4744745,35.2552553 L19.5795796,35.2552553 C19.2492492,35.2552553 18.978979,34.984985 18.978979,34.6546547 L18.978979,31.0810811 C18.978979,30.7507508 19.2492492,30.4804805 19.5795796,30.4804805 L28.8288288,30.4804805 C29.1591592,30.4804805 29.4294294,30.7507508 29.4294294,31.0810811 L29.4294294,68.8588589 L29.4294294,68.8588589 Z" id="Shape" fill="#FFFFFF"></path>
                <path d="M81.021021,34.6546547 C81.021021,34.984985 80.7507508,35.2552553 80.4204204,35.2552553 L70.0900901,35.2552553 L70.0900901,46.966967 L78.5885886,46.966967 C78.9189189,46.966967 79.1891892,47.2372372 79.1891892,47.5675676 L79.1891892,51.1411411 C79.1891892,51.4714715 78.9189189,51.7417417 78.5885886,51.7417417 L70.0900901,51.7417417 L70.0900901,68.8888889 C70.0900901,69.2192192 69.8198198,69.4894895 69.4894895,69.4894895 L65.7357357,69.4894895 C65.4054054,69.4894895 65.1351351,69.2192192 65.1351351,68.8888889 L65.1351351,31.0810811 C65.1351351,30.7507508 65.4054054,30.4804805 65.7357357,30.4804805 L80.4204204,30.4804805 C80.7507508,30.4804805 81.021021,30.7507508 81.021021,31.0810811 L81.021021,34.6546547 L81.021021,34.6546547 Z" id="Shape" fill="#FFFFFF"></path>
                <path d="M47.2972973,70.0900901 C40.7207207,70.0900901 35.3453453,64.7147147 35.3453453,58.1381381 C35.3453453,54.1741742 37.2672673,50.6006006 40.4804805,48.3783784 C38.1681682,46.3963964 36.7867868,43.4834835 36.7867868,40.4504505 C36.7867868,34.6546547 41.5015015,29.9399399 47.2972973,29.9399399 C53.0930931,29.9399399 57.8078078,34.6546547 57.8078078,40.4504505 C57.8078078,43.5135135 56.4264264,46.3963964 54.1141141,48.3783784 C57.3273273,50.6006006 59.2492492,54.2042042 59.2492492,58.1381381 C59.2492492,64.7147147 53.8738739,70.0900901 47.2972973,70.0900901 L47.2972973,70.0900901 Z M47.2972973,50.9309309 C43.3333333,50.9309309 40.1201201,54.1441441 40.1201201,58.1081081 C40.1201201,62.0720721 43.3333333,65.2852853 47.2972973,65.2852853 C51.2612613,65.2852853 54.4744745,62.0720721 54.4744745,58.1081081 C54.4744745,54.1741742 51.2612613,50.9309309 47.2972973,50.9309309 L47.2972973,50.9309309 Z M47.2972973,46.1861862 C50.4804805,46.1861862 53.033033,43.6036036 53.033033,40.4504505 C53.033033,37.2672673 50.4504505,34.7147147 47.2972973,34.7147147 C44.1441441,34.7147147 41.5615616,37.2972973 41.5615616,40.4504505 C41.5615616,43.6036036 44.1141141,46.1861862 47.2972973,46.1861862 L47.2972973,46.1861862 Z" id="Shape" fill="#FFFFFF"></path>
            </g>
        </g>
    </g>
</svg>