<?xml version="1.0" encoding="UTF-8"?>
<svg width="21px" height="21px" viewBox="0 0 21 21" version="1.1" xmlns="http://www.w3.org/2000/svg" xmlns:xlink="http://www.w3.org/1999/xlink">
    <!-- Generator: Sketch 56.3 (81716) - https://sketch.com -->
    <title>Shape</title>
    <desc>Created with Sketch.</desc>
    <g id="Home" stroke="none" stroke-width="1" fill="none" fill-rule="evenodd">
        <g id="Tock---Home---Large" transform="translate(-32.000000, -434.000000)" fill="#046B99" fill-rule="nonzero">
            <path d="M42.3479737,434.650311 C36.8237801,434.650311 32.3479737,439.126117 32.3479737,444.650311 C32.3479737,450.174504 36.8237801,454.650311 42.3479737,454.650311 C47.8721672,454.650311 52.3479737,450.174504 52.3479737,444.650311 C52.3479737,439.126117 47.8721672,434.650311 42.3479737,434.650311 Z M42.3479737,452.714827 C37.8923285,452.714827 34.2834575,449.105956 34.2834575,444.650311 C34.2834575,440.194665 37.8923285,436.585794 42.3479737,436.585794 C46.8036188,436.585794 50.4124898,440.194665 50.4124898,444.650311 C50.4124898,449.105956 46.8036188,452.714827 42.3479737,452.714827 Z M44.8399092,448.505149 L41.4165221,446.017246 C41.2915221,445.924504 41.2189414,445.779343 41.2189414,445.626117 L41.2189414,439.005149 C41.2189414,438.73902 41.4366833,438.521278 41.7028124,438.521278 L42.993135,438.521278 C43.259264,438.521278 43.4770059,438.73902 43.4770059,439.005149 L43.4770059,444.718859 L46.1705543,446.678536 C46.3882963,446.835794 46.4326511,447.138214 46.275393,447.355956 L45.5173285,448.400311 C45.3600704,448.61402 45.0576511,448.662407 44.8399092,448.505149 Z" id="Shape"></path>
        </g>
    </g>
</svg>