<?xml version="1.0" encoding="UTF-8"?>
<svg width="24px" height="21px" viewBox="0 0 24 21" version="1.1" xmlns="http://www.w3.org/2000/svg" xmlns:xlink="http://www.w3.org/1999/xlink">
    <!-- Generator: Sketch 56.3 (81716) - https://sketch.com -->
    <title>Group 3 Copy</title>
    <desc>Created with Sketch.</desc>
    <g id="Home" stroke="none" stroke-width="1" fill="none" fill-rule="evenodd">
        <g id="Tock---Home---Large" transform="translate(-29.000000, -474.000000)" fill-rule="nonzero">
            <g id="Group-3-Copy" transform="translate(29.000000, 474.023901)">
                <path d="M9.97874618,0.759373978 C11.0314002,0.382942711 12.1656761,0.177927012 13.3479737,0.177927012 C18.8721672,0.177927012 23.3479737,4.65373346 23.3479737,10.177927 C23.3479737,15.7021206 18.8721672,20.177927 13.3479737,20.177927 C8.63965777,20.177927 4.69292108,16.9265696 3.62982218,12.5459133 C4.07292121,12.6338442 4.53107597,12.6799529 5,12.6799529 C5.22549672,12.6799529 5.44850309,12.6692904 5.66854243,12.6484421 C6.71125836,15.8946664 9.75417852,18.2424431 13.3479737,18.2424431 C17.8036188,18.2424431 21.4124898,14.6335722 21.4124898,10.177927 C21.4124898,5.72228185 17.8036188,2.11341088 13.3479737,2.11341088 C12.5999256,2.11341088 11.8757449,2.21513155 11.1885023,2.40550228 C10.8665132,1.79822535 10.4577536,1.24400826 9.97874618,0.759373978 Z M15.8399092,14.0327657 L12.4165221,11.5448625 C12.2915221,11.4521206 12.2189414,11.3069593 12.2189414,11.1537335 L12.2189414,4.53276572 C12.2189414,4.26663669 12.4366833,4.04889475 12.7028124,4.04889475 L13.993135,4.04889475 C14.259264,4.04889475 14.4770059,4.26663669 14.4770059,4.53276572 L14.4770059,10.2464754 L17.1705543,12.2061528 C17.3882963,12.3634109 17.4326511,12.6658302 17.275393,12.8835722 L16.5173285,13.927927 C16.3600704,14.1416367 16.0576511,14.1900238 15.8399092,14.0327657 Z" id="Combined-Shape" fill="#046B99"></path>
                <path d="M5,10.6799529 C2.23857625,10.6799529 0,8.44137666 0,5.67995291 C0,2.91852916 2.23857625,0.679952908 5,0.679952908 C7.76142375,0.679952908 10,2.91852916 10,5.67995291 C10,8.44137666 7.76142375,10.6799529 5,10.6799529 Z M4.5,1.68644643 C4.22385763,1.68644643 4,1.91030405 4,2.18644643 L4,6.36496123 C4,6.6411036 4.22385763,6.86496123 4.5,6.86496123 L5.5,6.86496123 C5.77614237,6.86496123 6,6.6411036 6,6.36496123 L6,2.18644643 C6,1.91030405 5.77614237,1.68644643 5.5,1.68644643 L4.5,1.68644643 Z M4.5,7.65714173 C4.22385763,7.65714173 4,7.88099935 4,8.15714173 L4,9.16087719 C4,9.43701957 4.22385763,9.66087719 4.5,9.66087719 L5.5,9.66087719 C5.77614237,9.66087719 6,9.43701957 6,9.16087719 L6,8.15714173 C6,7.88099935 5.77614237,7.65714173 5.5,7.65714173 L4.5,7.65714173 Z" id="Combined-Shape" fill="#CD2026"></path>
            </g>
        </g>
    </g>
</svg>