<?xml version="1.0" encoding="UTF-8"?>
<svg width="24px" height="21px" viewBox="0 0 24 21" version="1.1" xmlns="http://www.w3.org/2000/svg" xmlns:xlink="http://www.w3.org/1999/xlink">
    <!-- Generator: Sketch 56.3 (81716) - https://sketch.com -->
    <title>Group 3 Copy 2</title>
    <desc>Created with Sketch.</desc>
    <g id="Home" stroke="none" stroke-width="1" fill="none" fill-rule="evenodd">
        <g id="Tock---Home---Large" transform="translate(-366.000000, -434.000000)">
            <g id="Group-3-Copy-2" transform="translate(366.347974, 434.274472)">
                <path d="M9.97874618,0.759373978 C11.0314002,0.382942711 12.1656761,0.177927012 13.3479737,0.177927012 C18.8721672,0.177927012 23.3479737,4.65373346 23.3479737,10.177927 C23.3479737,15.7021206 18.8721672,20.177927 13.3479737,20.177927 C8.63965777,20.177927 4.69292108,16.9265696 3.62982218,12.5459133 C4.07292121,12.6338442 4.53107597,12.6799529 5,12.6799529 C5.22549672,12.6799529 5.44850309,12.6692904 5.66854243,12.6484421 C6.71125836,15.8946664 9.75417852,18.2424431 13.3479737,18.2424431 C17.8036188,18.2424431 21.4124898,14.6335722 21.4124898,10.177927 C21.4124898,5.72228185 17.8036188,2.11341088 13.3479737,2.11341088 C12.5999256,2.11341088 11.8757449,2.21513155 11.1885023,2.40550228 C10.8665132,1.79822535 10.4577536,1.24400826 9.97874618,0.759373978 Z M15.8399092,14.0327657 L12.4165221,11.5448625 C12.2915221,11.4521206 12.2189414,11.3069593 12.2189414,11.1537335 L12.2189414,4.53276572 C12.2189414,4.26663669 12.4366833,4.04889475 12.7028124,4.04889475 L13.993135,4.04889475 C14.259264,4.04889475 14.4770059,4.26663669 14.4770059,4.53276572 L14.4770059,10.2464754 L17.1705543,12.2061528 C17.3882963,12.3634109 17.4326511,12.6658302 17.275393,12.8835722 L16.5173285,13.927927 C16.3600704,14.1416367 16.0576511,14.1900238 15.8399092,14.0327657 Z" id="Combined-Shape" fill="#046B99" fill-rule="nonzero"></path>
                <g id="ok2" transform="translate(0.000000, 0.679953)" fill="#2E8540">
                    <path d="M9.3,2.50730159 C8.85595238,1.74650794 8.25357143,1.14412698 7.49277778,0.700079365 C6.7318254,0.256031746 5.90111111,0.034047619 5.00007937,0.034047619 C4.09912698,0.034047619 3.2681746,0.256031746 2.50738095,0.700079365 C1.74650794,1.14404762 1.14412698,1.74642857 0.700079365,2.50730159 C0.255952381,3.2681746 0.033968254,4.09912698 0.033968254,5 C0.033968254,5.90095238 0.256031746,6.73174603 0.7,7.49269841 C1.14404762,8.2534127 1.74642857,8.85587302 2.50730159,9.29992063 C3.2681746,9.74396825 4.09904762,9.96595238 5,9.96595238 C5.90095238,9.96595238 6.73190476,9.74396825 7.49269841,9.29992063 C8.25349206,8.85595238 8.85587302,8.25349206 9.29992063,7.49269841 C9.74388889,6.7318254 9.96587302,5.90087302 9.96587302,5 C9.96587302,4.09904762 9.74388889,3.26809524 9.3,2.50730159 L9.3,2.50730159 Z M8.22,4.24349206 L4.70896825,7.75452381 C4.62706349,7.83642857 4.52793651,7.87746032 4.41150794,7.87746032 C4.29944444,7.87746032 4.20246032,7.83642857 4.12055556,7.75452381 L1.7797619,5.41388889 C1.70222222,5.33619048 1.6634127,5.23936508 1.6634127,5.12293651 C1.6634127,5.00222222 1.70214286,4.90301587 1.7797619,4.82539683 L2.3681746,4.24349206 C2.45015873,4.1615873 2.54706349,4.12063492 2.65920635,4.12063492 C2.77134921,4.12063492 2.86833333,4.1615873 2.9502381,4.24349206 L4.4115873,5.70484127 L7.0497619,3.07309524 C7.13166667,2.99119048 7.22865079,2.9502381 7.34071429,2.9502381 C7.45269841,2.9502381 7.54984127,2.99119048 7.63166667,3.07309524 L8.22007937,3.65507937 C8.29777778,3.73261905 8.33650794,3.83174603 8.33650794,3.95246032 C8.33650794,4.06888889 8.29777778,4.16587302 8.22,4.24349206 L8.22,4.24349206 Z" id="Shape"></path>
                </g>
            </g>
        </g>
    </g>
</svg>